{"title":"Sex and the City 2 - 2010.SWESUB.DVDRIP.XVID.FEEL-FREE","uid":5722567,"size":1235427129,"categoryP":"video","categoryS":"movies","magnet":"?xt=urn:btih:c8d3cfda586fe0e6d1641dbb52366ac6b2d8a1b3&amp;dn=Sex+and+the+City+2+-+2010.SWESUB.DVDRIP.XVID.FEEL-FREE&amp;tr=udp%3A%2F%2Ftracker.openbittorrent.com%3A80&amp;tr=udp%3A%2F%2Fopen.demonii.com%3A1337&amp;tr=udp%3A%2F%2Ftracker.coppersurfer.tk%3A6969&amp;tr=udp%3A%2F%2Fexodus.desync.com%3A6969","seeders":5,"leechers":0,"uploader":"neon","files":8,"time":1280334111,"description":"Genre:Comedy/Drama/Romance\nLanguage:English\nIMDb:http://www.imdb.com/title/tt1261945/\nSource:SWESUB.PAL.DVDR.iNTERNAL-KAFFEREP.Thanks\nSample:YES\n\nGeneral\nComplete name : Sex.and.the.City.2.2010.SWESUB.DVDRIP.XVID.FEEL-FREE\nFormat : AVI\nFormat/Info : Audio Video Interleave\nFile size : 1.13 GiB\nDuration : 2h 20mn\nOverall bit rate : 1 149 Kbps\nVideo #0\nID : 0\nFormat : MPEG-4 Visual\nFormat profile : AdvancedSimple@L5\nFormat settings, BVOP : Yes\nCodec ID : XVID\nCodec ID/Hint : XviD\nDuration : 2h 20mn\nBit rate : 1 015 Kbps\nWidth : 640 pixels\nHeight : 352 pixels\nDisplay aspect ratio : 16:9\nFrame rate : 25.000 fps\nResolution : 24 bits\nColorimetry : 4:2:0\nScan type : Progressive\nBits/(Pixel*Frame) : 0.180\nStream size : 1 019 MiB (88%)\nWriting library : XviD 1.1.2 (UTC 2006-11-01)\nAudio #1\nID : 1\nFormat : MPEG Audio\nFormat version : Version 1\nFormat profile : Layer 3\nCodec ID : 55\nCodec ID/Hint : MP3\nDuration : 2h 20mn\nBit rate mode : Constant\nBit rate : 128 Kbps\nChannel(s) : 2 channels\nSampling rate : 44.1 KHz\nResolution : 16 bits\nVideo delay : 40ms\nStream size : 128 MiB (11%)\nAlignment : Split accross interleaves\nInterleave, duration : 500 ms (12.50 video frames)\nInterleave, preload duration : 500 ms\n\nPlot:\nWhile wrestling with the pressures of life, love, and work in Manhattan, Carrie, Miranda,\nand Charlotte join Samantha for a trip to Morocco, where Samantha's ex is filming a new movie\n\nTRAILER:\n\nNOTES:CHECK SAMPLES FOR AUDIO&amp;VIDEO","torrent":{"xt":"urn:btih:c8d3cfda586fe0e6d1641dbb52366ac6b2d8a1b3","amp;dn":"Sex+and+the+City+2+-+2010.SWESUB.DVDRIP.XVID.FEEL-FREE","amp;tr":["udp%3A%2F%2Ftracker.openbittorrent.com%3A80","udp%3A%2F%2Fopen.demonii.com%3A1337","udp%3A%2F%2Ftracker.coppersurfer.tk%3A6969","udp%3A%2F%2Fexodus.desync.com%3A6969"],"infoHash":"c8d3cfda586fe0e6d1641dbb52366ac6b2d8a1b3","infoHashBuffer":{"type":"Buffer","data":[200,211,207,218,88,111,224,230,209,100,29,187,82,54,106,198,178,216,161,179]},"announce":[],"urlList":[]}}